<?xml version="1.0" encoding="UTF-8" standalone="no"?>
<svg
   height="48"
   viewBox="0 0 48 48"
   width="48"
   fill="#000000"
   version="1.1"
   id="svg6"
   sodipodi:docname="matrix-chat.svg"
   inkscape:version="1.3 (0e150ed6c4, 2023-07-21)"
   xml:space="preserve"
   xmlns:inkscape="http://www.inkscape.org/namespaces/inkscape"
   xmlns:sodipodi="http://sodipodi.sourceforge.net/DTD/sodipodi-0.dtd"
   xmlns="http://www.w3.org/2000/svg"
   xmlns:svg="http://www.w3.org/2000/svg"
   xmlns:rdf="http://www.w3.org/1999/02/22-rdf-syntax-ns#"
   xmlns:cc="http://creativecommons.org/ns#"
   xmlns:dc="http://purl.org/dc/elements/1.1/"><metadata
     id="metadata12"><rdf:RDF><cc:Work
         rdf:about=""><dc:format>image/svg+xml</dc:format><dc:type
           rdf:resource="http://purl.org/dc/dcmitype/StillImage" /><dc:title /></cc:Work></rdf:RDF></metadata><defs
     id="defs10" /><sodipodi:namedview
     pagecolor="#ffffff"
     bordercolor="#666666"
     borderopacity="1"
     objecttolerance="10000"
     gridtolerance="10000"
     guidetolerance="10"
     inkscape:pageopacity="0"
     inkscape:pageshadow="2"
     inkscape:window-width="2560"
     inkscape:window-height="1323"
     id="namedview8"
     showgrid="true"
     inkscape:zoom="8.8541667"
     inkscape:cx="-1.1858823"
     inkscape:cy="19.482353"
     inkscape:window-x="0"
     inkscape:window-y="0"
     inkscape:window-maximized="1"
     inkscape:current-layer="svg6"
     inkscape:showpageshadow="2"
     inkscape:pagecheckerboard="0"
     inkscape:deskcolor="#d1d1d1"><inkscape:grid
       type="xygrid"
       id="grid891"
       originx="0"
       originy="0"
       spacingy="1"
       spacingx="1"
       units="px"
       visible="true" /></sodipodi:namedview><path
     d="M 0,0 H 24 V 24 H 0 Z"
     fill="none"
     id="path2" /><path
     d="M 40,4 H 8 C 5.8,4 4,5.8 4,8 v 36 l 8,-8 h 28 c 2.2,0 4,-1.8 4,-4 V 8 C 44,5.8 42.2,4 40,4 Z m 1,29 H 12 L 7,38 V 7 h 34 z"
     id="path4"
     style="stroke-width:2"
     sodipodi:nodetypes="sssccsssscccccc" /><g
     transform="matrix(0.62492188,0,0,0.62492188,15.239845,10.022497)"
     fill="#040404"
     id="g3"><path
       d="M 27.1,31.2 V 0.7 h -2.19 v -0.732 h 3.04 v 32 h -3.04 v -0.732 z"
       id="path1" /><path
       d="m 8.23,10.4 v 1.54 h 0.044 c 0.385,-0.564 0.893,-1.03 1.49,-1.37 0.58,-0.323 1.25,-0.485 1.99,-0.485 0.72,0 1.38,0.14 1.97,0.42 0.595,0.279 1.05,0.771 1.36,1.48 0.338,-0.5 0.796,-0.941 1.38,-1.32 0.58,-0.383 1.27,-0.574 2.06,-0.574 0.602,0 1.16,0.074 1.67,0.22 0.514,0.148 0.954,0.383 1.32,0.707 0.366,0.323 0.653,0.746 0.859,1.27 0.205,0.522 0.308,1.15 0.308,1.89 v 7.63 h -3.13 v -6.46 c 0,-0.383 -0.015,-0.743 -0.044,-1.08 -0.0209,-0.307 -0.103,-0.607 -0.242,-0.882 -0.133,-0.251 -0.336,-0.458 -0.584,-0.596 -0.257,-0.146 -0.606,-0.22 -1.05,-0.22 -0.44,0 -0.796,0.085 -1.07,0.253 -0.272,0.17 -0.485,0.39 -0.639,0.662 -0.159,0.287 -0.264,0.602 -0.308,0.927 -0.052,0.347 -0.078,0.697 -0.078,1.05 v 6.35 h -3.13 v -6.4 c 0,-0.338 -0.007,-0.673 -0.021,-1 -0.0114,-0.314 -0.0749,-0.623 -0.188,-0.916 -0.108,-0.277 -0.3,-0.512 -0.55,-0.673 -0.258,-0.168 -0.636,-0.253 -1.14,-0.253 -0.198,0.0083 -0.394,0.042 -0.584,0.1 -0.258,0.0745 -0.498,0.202 -0.705,0.374 -0.228,0.184 -0.422,0.449 -0.584,0.794 -0.161,0.346 -0.242,0.798 -0.242,1.36 v 6.62 h -3.13 v -11.4 z"
       id="path2-3" /><path
       d="m 0.936,0.732 v 30.5 h 2.19 v 0.732 h -3.04 v -32 h 3.03 v 0.732 z"
       id="path3" /></g></svg>
