<?xml version="1.0" encoding="UTF-8" standalone="no"?>
<svg
   xmlns:dc="http://purl.org/dc/elements/1.1/"
   xmlns:cc="http://creativecommons.org/ns#"
   xmlns:rdf="http://www.w3.org/1999/02/22-rdf-syntax-ns#"
   xmlns:svg="http://www.w3.org/2000/svg"
   xmlns="http://www.w3.org/2000/svg"
   xmlns:sodipodi="http://sodipodi.sourceforge.net/DTD/sodipodi-0.dtd"
   xmlns:inkscape="http://www.inkscape.org/namespaces/inkscape"
   height="48"
   viewBox="0 0 48 48"
   width="48"
   fill="#000000"
   version="1.1"
   id="svg6"
   sodipodi:docname="xmpp-chat.svg"
   inkscape:version="1.0.1 (3bc2e813f5, 2020-09-07)">
  <metadata
     id="metadata12">
    <rdf:RDF>
      <cc:Work
         rdf:about="">
        <dc:format>image/svg+xml</dc:format>
        <dc:type
           rdf:resource="http://purl.org/dc/dcmitype/StillImage" />
        <dc:title></dc:title>
      </cc:Work>
    </rdf:RDF>
  </metadata>
  <defs
     id="defs10" />
  <sodipodi:namedview
     pagecolor="#ffffff"
     bordercolor="#666666"
     borderopacity="1"
     objecttolerance="10000"
     gridtolerance="10000"
     guidetolerance="10"
     inkscape:pageopacity="0"
     inkscape:pageshadow="2"
     inkscape:window-width="1920"
     inkscape:window-height="1017"
     id="namedview8"
     showgrid="true"
     inkscape:zoom="8.8541667"
     inkscape:cx="-1.2178464"
     inkscape:cy="19.528091"
     inkscape:window-x="-8"
     inkscape:window-y="-8"
     inkscape:window-maximized="1"
     inkscape:current-layer="svg6">
    <inkscape:grid
       type="xygrid"
       id="grid891" />
  </sodipodi:namedview>
  <path
     d="M 0,0 H 24 V 24 H 0 Z"
     fill="none"
     id="path2" />
  <path
     d="M 40,4 H 8 C 5.8,4 4,5.8 4,8 v 36 l 8,-8 h 28 c 2.2,0 4,-1.8 4,-4 V 8 C 44,5.8 42.2,4 40,4 Z m 1,29 H 12 L 7,38 V 7 h 34 z"
     id="path4"
     style="stroke-width:2"
     sodipodi:nodetypes="sssccsssscccccc" />
  <g
     id="g889"
     transform="matrix(0.11666364,0,0,0.11666364,12.334562,8.2069992)">
    <path
       d="m 151.80512,29.557978 c 0.077,1.313 -1.787,0.968 -1.787,2.293 0,38.551 -46.558,97.366012 -91.687985,108.730012 v 1.639 C 118.28313,136.69999 186.89012,74.419978 188.40012,15.369977 l -36.599,14.189001 z"
       style="fill:url(#SVGID_right_)"
       id="path851" />
    <path
       d="m 133.67312,34.300978 c 0.076,1.313 0.12,2.63 0.12,3.957 0,38.551 -30.69898,90.497012 -75.826985,101.860012 v 1.639 c 59.044005,-2.79 105.809995,-63.024012 105.809995,-109.200012 0,-2.375 -0.128,-4.729 -0.371,-7.056 l -29.73,8.798 z"
       style="fill:#e96d1f"
       id="path853" />
    <path
       d="m 163.69112,24.951978 -7.61699,2.722 c 0.041,0.962 0.066,2.254 0.066,3.225 0,41.219 -37.271,98.204012 -87.271995,107.120012 -3.24501,1.088 -7.53801,2.077 -10.932,2.931 v 1.638 C 123.19013,137.02799 169.03613,70.721978 163.69612,24.947978 Z"
       style="fill:#d9541e"
       id="path855" />
    <path
       d="m 50.011,29.556978 c -0.077,1.313 1.787,0.968 1.787,2.293 0,38.551 46.558007,97.366012 91.68799,108.730012 v 1.639 C 83.533,136.69899 14.926,74.418978 13.416,15.368977 l 36.599,14.189001 z"
       style="fill:url(#SVGID_left_)"
       id="path857" />
    <path
       d="m 68.143,34.299978 c -0.076,1.313 -0.12,2.63 -0.12,3.957 0,38.551 30.698995,90.497012 75.82699,101.860012 v 1.639 C 84.806,138.96599 38.04,78.731978 38.04,32.555978 c 0,-2.375 0.128,-4.729 0.371,-7.056 l 29.73,8.798 z"
       style="fill:#a0ce67"
       id="path859" />
    <path
       d="m 38.125,24.950978 7.617,2.722 c -0.041,0.962 -0.066,2.254 -0.066,3.225 0,41.219 37.271,98.204012 87.27199,107.120012 3.245,1.088 7.538,2.077 10.932,2.931 v 1.638 C 78.626,137.02699 32.78,70.720978 38.12,24.946978 Z"
       style="fill:#439639"
       id="path861" />
    <path
       d="m 25.988,172.07799 -13.388,-14.65 h 11.643 l 9.127,10.268 9.129,-10.268 h 11.643 l -13.387,14.646 14.401,14.728 h -12.09 l -9.697,-10.67 -9.693,10.67 H 11.584 l 14.404,-14.73 z"
       id="path863" />
    <path
       d="m 58.508,157.42799 h 13.836 l 10.183,18.905 10.183,-18.905 h 13.83199 v 29.374 h -8.761983 v -21.096 h -0.08 L 85.893,186.80199 H 79.16 l -11.807,-21.096 h -0.082 v 21.096 h -8.764 v -29.37 z"
       id="path865" />
    <path
       d="m 112.66199,157.42799 h 24.546 c 8.559,0 10.628,4.302 10.628,10.063 v 2.516 c 0,4.381 -1.908,9.41 -8.275,9.41 h -17.894 v 7.385 h -9.005 v -29.38 z m 9,14.69 h 13.997 c 2.10901,0 2.92401,-1.377 2.92401,-3.123 v -1.135 c 0,-1.99 -0.976,-3.127 -3.694,-3.127 h -13.227 v 7.38 z"
       id="path867" />
    <path
       d="m 152.72199,157.42799 h 24.546 c 8.561,0 10.63,4.302 10.63,10.063 v 2.516 c 0,4.381 -1.907,9.41 -8.275,9.41 h -17.893 v 7.385 h -9.008 v -29.38 z m 9.01,14.69 h 13.996 c 2.11,0 2.922,-1.377 2.922,-3.123 v -1.135 c 0,-1.99 -0.974,-3.127 -3.693,-3.127 h -13.225 v 7.38 z"
       id="path869" />
  </g>
</svg>
